<svg xmlns="http://www.w3.org/2000/svg" xmlns:xlink="http://www.w3.org/1999/xlink" width="1920" zoomAndPan="magnify" viewBox="0 0 1440 809.999993" height="1080" preserveAspectRatio="xMidYMid meet" version="1.0"><defs><clipPath id="8d213ba857"><path d="M 135.679688 485.417969 L 305.929688 485.417969 L 305.929688 669.167969 L 135.679688 669.167969 Z M 135.679688 485.417969 " clip-rule="nonzero"/></clipPath><clipPath id="5997ceaf6d"><path d="M 1113.035156 470.371094 L 1200.035156 470.371094 L 1200.035156 669.121094 L 1113.035156 669.121094 Z M 1113.035156 470.371094 " clip-rule="nonzero"/></clipPath><clipPath id="bbd6106835"><path d="M 1089.644531 591.601562 L 1125.644531 591.601562 L 1125.644531 673.351562 L 1089.644531 673.351562 Z M 1089.644531 591.601562 " clip-rule="nonzero"/></clipPath></defs><g clip-path="url(#8d213ba857)"><path fill="#535454" d="M 305.925781 495.023438 L 298.335938 495.023438 L 298.335938 485.417969 L 229.75 485.417969 L 229.75 493.867188 L 221.035156 493.867188 L 221.035156 549.539062 L 212.589844 549.539062 L 212.589844 558.257812 L 199.964844 558.257812 L 199.964844 566.261719 L 187.074219 566.261719 L 187.074219 575.335938 L 178.183594 575.335938 L 178.183594 583.695312 L 161.199219 583.695312 L 161.199219 575.421875 L 152.664062 575.421875 L 152.664062 566.886719 L 144.132812 566.886719 L 144.132812 549.539062 L 135.6875 549.539062 L 135.6875 600.589844 L 143.867188 600.589844 L 143.867188 609.308594 L 152.757812 609.308594 L 152.757812 617.9375 L 161.203125 617.9375 L 161.203125 626.472656 L 169.738281 626.472656 L 169.738281 634.746094 L 178.183594 634.746094 L 178.183594 669.164062 L 195.523438 669.164062 L 195.523438 660.359375 L 186.898438 660.359375 L 186.898438 651.910156 L 195.429688 651.910156 L 195.429688 643.375 L 203.964844 643.375 L 203.964844 634.925781 L 212.589844 634.925781 L 212.589844 643.375 L 220.800781 643.375 L 220.800781 669.167969 L 237.933594 669.167969 L 237.933594 660.453125 L 229.664062 660.453125 L 229.664062 626.382812 L 237.933594 626.382812 L 237.933594 617.753906 L 246.734375 617.753906 L 246.734375 604.945312 L 255.09375 604.945312 L 255.09375 575.070312 L 263.808594 575.070312 L 263.808594 583.34375 L 272.078125 583.34375 L 272.078125 566.625 L 255.1875 566.625 L 255.1875 549.457031 L 289.148438 549.457031 L 289.148438 540.921875 L 263.808594 540.921875 L 263.71875 531.558594 L 305.925781 531.558594 Z M 246.628906 506.863281 L 238.097656 506.863281 L 238.097656 498.328125 L 246.628906 498.328125 Z M 246.628906 506.863281 " fill-opacity="1" fill-rule="nonzero"/></g><g clip-path="url(#5997ceaf6d)"><path fill="#535454" d="M 1190.53125 504.132812 C 1189.890625 504.132812 1189.257812 504.195312 1188.628906 504.320312 C 1188 504.445312 1187.390625 504.628906 1186.800781 504.875 C 1186.207031 505.117188 1185.644531 505.417969 1185.113281 505.773438 C 1184.582031 506.128906 1184.085938 506.535156 1183.636719 506.984375 C 1183.183594 507.4375 1182.777344 507.929688 1182.421875 508.460938 C 1182.066406 508.996094 1181.765625 509.554688 1181.519531 510.148438 C 1181.273438 510.738281 1181.085938 511.347656 1180.960938 511.976562 C 1180.835938 512.601562 1180.773438 513.238281 1180.773438 513.878906 L 1180.664062 567.902344 C 1180.519531 571.023438 1179.929688 574.058594 1178.902344 577.011719 C 1178.253906 578.476562 1177.53125 579.90625 1176.738281 581.300781 C 1176.558594 581.480469 1176.386719 581.667969 1176.226562 581.863281 C 1174.824219 583.585938 1173.121094 584.9375 1171.121094 585.90625 C 1169.636719 586.632812 1168.085938 587.1875 1166.476562 587.570312 L 1166.476562 480.09375 C 1166.476562 479.453125 1166.414062 478.816406 1166.289062 478.1875 C 1166.164062 477.5625 1165.976562 476.949219 1165.730469 476.359375 C 1165.488281 475.765625 1165.1875 475.203125 1164.828125 474.667969 C 1164.472656 474.136719 1164.070312 473.644531 1163.617188 473.191406 C 1163.164062 472.738281 1162.667969 472.332031 1162.136719 471.976562 C 1161.601562 471.621094 1161.039062 471.320312 1160.449219 471.074219 C 1159.855469 470.828125 1159.246094 470.644531 1158.617188 470.519531 C 1157.988281 470.394531 1157.351562 470.332031 1156.710938 470.332031 C 1156.070312 470.332031 1155.4375 470.394531 1154.808594 470.519531 C 1154.179688 470.644531 1153.566406 470.828125 1152.976562 471.074219 C 1152.382812 471.320312 1151.820312 471.621094 1151.289062 471.976562 C 1150.753906 472.332031 1150.261719 472.738281 1149.808594 473.191406 C 1149.355469 473.644531 1148.949219 474.136719 1148.59375 474.671875 C 1148.238281 475.203125 1147.9375 475.765625 1147.691406 476.359375 C 1147.445312 476.949219 1147.261719 477.5625 1147.136719 478.1875 C 1147.011719 478.816406 1146.949219 479.453125 1146.949219 480.09375 L 1146.949219 557.929688 L 1138.269531 549.25 C 1136.648438 547.578125 1135.4375 545.652344 1134.636719 543.46875 C 1133.546875 540.441406 1132.929688 537.320312 1132.785156 534.101562 L 1132.675781 496.976562 C 1132.675781 496.335938 1132.609375 495.703125 1132.484375 495.074219 C 1132.359375 494.449219 1132.171875 493.839844 1131.925781 493.25 C 1131.679688 492.65625 1131.378906 492.097656 1131.023438 491.566406 C 1130.667969 491.035156 1130.261719 490.542969 1129.808594 490.089844 C 1129.355469 489.636719 1128.863281 489.234375 1128.332031 488.878906 C 1127.800781 488.523438 1127.238281 488.226562 1126.648438 487.980469 C 1126.054688 487.734375 1125.445312 487.550781 1124.820312 487.425781 C 1124.191406 487.300781 1123.558594 487.238281 1122.917969 487.238281 L 1122.894531 487.238281 C 1122.25 487.238281 1121.617188 487.304688 1120.988281 487.429688 C 1120.359375 487.558594 1119.75 487.742188 1119.160156 487.992188 C 1118.566406 488.238281 1118.003906 488.539062 1117.472656 488.898438 C 1116.941406 489.253906 1116.449219 489.660156 1115.996094 490.117188 C 1115.542969 490.570312 1115.140625 491.0625 1114.785156 491.597656 C 1114.433594 492.132812 1114.132812 492.695312 1113.886719 493.289062 C 1113.644531 493.882812 1113.460938 494.492188 1113.335938 495.121094 C 1113.214844 495.75 1113.152344 496.386719 1113.15625 497.027344 L 1113.261719 534.480469 C 1113.261719 534.660156 1113.261719 534.839844 1113.261719 535.027344 C 1113.511719 540.335938 1114.558594 545.488281 1116.398438 550.472656 C 1118.1875 555.238281 1120.871094 559.429688 1124.449219 563.050781 L 1146.917969 585.542969 L 1146.917969 665.992188 C 1146.917969 666.636719 1146.980469 667.269531 1147.105469 667.898438 C 1147.230469 668.527344 1147.414062 669.136719 1147.660156 669.730469 C 1147.90625 670.324219 1148.207031 670.886719 1148.5625 671.417969 C 1148.917969 671.949219 1149.324219 672.445312 1149.777344 672.898438 C 1150.230469 673.351562 1150.722656 673.753906 1151.257812 674.113281 C 1151.789062 674.46875 1152.351562 674.769531 1152.945312 675.015625 C 1153.539062 675.257812 1154.148438 675.445312 1154.777344 675.570312 C 1155.40625 675.695312 1156.039062 675.757812 1156.679688 675.757812 C 1157.324219 675.757812 1157.957031 675.695312 1158.585938 675.570312 C 1159.214844 675.445312 1159.824219 675.257812 1160.417969 675.015625 C 1161.011719 674.769531 1161.574219 674.46875 1162.105469 674.113281 C 1162.636719 673.753906 1163.132812 673.351562 1163.585938 672.898438 C 1164.039062 672.445312 1164.441406 671.949219 1164.800781 671.417969 C 1165.15625 670.886719 1165.457031 670.324219 1165.703125 669.730469 C 1165.945312 669.136719 1166.132812 668.527344 1166.257812 667.898438 C 1166.382812 667.269531 1166.445312 666.636719 1166.445312 665.992188 L 1166.445312 607.457031 C 1171.117188 606.796875 1175.578125 605.433594 1179.824219 603.371094 C 1184.117188 601.246094 1187.804688 598.351562 1190.894531 594.691406 C 1191.402344 594.175781 1191.871094 593.628906 1192.296875 593.046875 C 1193.472656 591.4375 1194.921875 588.761719 1196.730469 584.875 C 1196.820312 584.679688 1196.902344 584.480469 1196.984375 584.277344 C 1198.824219 579.289062 1199.871094 574.140625 1200.121094 568.832031 C 1200.121094 568.648438 1200.121094 568.464844 1200.121094 568.273438 L 1200.226562 513.921875 C 1200.230469 513.285156 1200.167969 512.652344 1200.042969 512.023438 C 1199.921875 511.398438 1199.738281 510.789062 1199.496094 510.195312 C 1199.253906 509.605469 1198.953125 509.042969 1198.601562 508.511719 C 1198.25 507.976562 1197.847656 507.484375 1197.398438 507.03125 C 1196.949219 506.574219 1196.457031 506.167969 1195.929688 505.8125 C 1195.398438 505.453125 1194.839844 505.148438 1194.25 504.902344 C 1193.660156 504.652344 1193.054688 504.464844 1192.429688 504.335938 C 1191.800781 504.207031 1191.171875 504.140625 1190.53125 504.132812 Z M 1190.53125 504.132812 " fill-opacity="1" fill-rule="nonzero"/></g><g clip-path="url(#bbd6106835)"><path fill="#535454" d="M 1121.625 605.535156 C 1121.363281 605.535156 1121.101562 605.5625 1120.839844 605.613281 C 1120.582031 605.664062 1120.328125 605.738281 1120.085938 605.839844 C 1119.839844 605.941406 1119.609375 606.066406 1119.390625 606.210938 C 1119.171875 606.359375 1118.964844 606.523438 1118.78125 606.710938 C 1118.59375 606.898438 1118.425781 607.101562 1118.277344 607.320312 C 1118.132812 607.539062 1118.007812 607.773438 1117.90625 608.015625 C 1117.804688 608.261719 1117.726562 608.511719 1117.675781 608.769531 C 1117.625 609.03125 1117.597656 609.292969 1117.597656 609.554688 L 1117.554688 631.851562 C 1117.492188 633.140625 1117.25 634.394531 1116.828125 635.613281 C 1116.558594 636.21875 1116.261719 636.808594 1115.933594 637.382812 C 1115.859375 637.457031 1115.789062 637.53125 1115.722656 637.613281 C 1115.144531 638.324219 1114.441406 638.882812 1113.617188 639.28125 C 1113 639.582031 1112.363281 639.8125 1111.699219 639.96875 L 1111.699219 595.613281 C 1111.699219 595.347656 1111.671875 595.085938 1111.621094 594.828125 C 1111.570312 594.566406 1111.492188 594.316406 1111.390625 594.070312 C 1111.289062 593.828125 1111.164062 593.59375 1111.019531 593.375 C 1110.871094 593.15625 1110.703125 592.953125 1110.519531 592.765625 C 1110.332031 592.578125 1110.128906 592.410156 1109.90625 592.261719 C 1109.6875 592.117188 1109.453125 591.992188 1109.210938 591.890625 C 1108.964844 591.789062 1108.714844 591.714844 1108.453125 591.660156 C 1108.195312 591.609375 1107.933594 591.585938 1107.667969 591.585938 C 1107.402344 591.585938 1107.140625 591.609375 1106.882812 591.660156 C 1106.621094 591.714844 1106.371094 591.789062 1106.125 591.890625 C 1105.882812 591.992188 1105.648438 592.117188 1105.429688 592.261719 C 1105.210938 592.410156 1105.007812 592.578125 1104.820312 592.765625 C 1104.632812 592.953125 1104.464844 593.15625 1104.316406 593.375 C 1104.171875 593.59375 1104.046875 593.828125 1103.945312 594.070312 C 1103.84375 594.316406 1103.769531 594.566406 1103.714844 594.828125 C 1103.664062 595.085938 1103.640625 595.347656 1103.640625 595.613281 L 1103.640625 627.738281 L 1100.054688 624.152344 C 1099.386719 623.464844 1098.890625 622.667969 1098.558594 621.769531 C 1098.109375 620.519531 1097.855469 619.230469 1097.792969 617.902344 L 1097.75 602.582031 C 1097.75 602.316406 1097.722656 602.054688 1097.667969 601.796875 C 1097.617188 601.539062 1097.539062 601.285156 1097.441406 601.042969 C 1097.339844 600.796875 1097.214844 600.566406 1097.066406 600.347656 C 1096.917969 600.128906 1096.753906 599.925781 1096.566406 599.738281 C 1096.378906 599.550781 1096.175781 599.386719 1095.957031 599.238281 C 1095.738281 599.09375 1095.503906 598.96875 1095.261719 598.867188 C 1095.015625 598.765625 1094.765625 598.691406 1094.507812 598.640625 C 1094.246094 598.589844 1093.984375 598.5625 1093.722656 598.5625 L 1093.710938 598.5625 C 1093.445312 598.5625 1093.183594 598.589844 1092.925781 598.640625 C 1092.667969 598.695312 1092.414062 598.769531 1092.171875 598.871094 C 1091.925781 598.976562 1091.695312 599.097656 1091.472656 599.246094 C 1091.253906 599.394531 1091.050781 599.5625 1090.863281 599.75 C 1090.679688 599.9375 1090.511719 600.140625 1090.367188 600.363281 C 1090.21875 600.582031 1090.097656 600.8125 1089.996094 601.058594 C 1089.894531 601.304688 1089.820312 601.554688 1089.769531 601.816406 C 1089.71875 602.074219 1089.691406 602.335938 1089.691406 602.601562 L 1089.738281 618.058594 C 1089.738281 618.132812 1089.738281 618.207031 1089.738281 618.285156 C 1089.839844 620.476562 1090.273438 622.601562 1091.03125 624.660156 C 1091.769531 626.625 1092.878906 628.355469 1094.355469 629.851562 L 1103.625 639.132812 L 1103.625 672.335938 C 1103.625 672.601562 1103.652344 672.863281 1103.703125 673.121094 C 1103.753906 673.382812 1103.832031 673.632812 1103.933594 673.878906 C 1104.035156 674.121094 1104.160156 674.355469 1104.304688 674.574219 C 1104.453125 674.792969 1104.621094 674.996094 1104.808594 675.183594 C 1104.992188 675.371094 1105.199219 675.539062 1105.417969 675.6875 C 1105.636719 675.832031 1105.871094 675.957031 1106.113281 676.058594 C 1106.359375 676.160156 1106.609375 676.234375 1106.871094 676.289062 C 1107.128906 676.339844 1107.390625 676.363281 1107.65625 676.363281 C 1107.921875 676.363281 1108.183594 676.339844 1108.441406 676.289062 C 1108.703125 676.234375 1108.953125 676.160156 1109.199219 676.058594 C 1109.441406 675.957031 1109.675781 675.832031 1109.894531 675.6875 C 1110.113281 675.539062 1110.316406 675.371094 1110.503906 675.183594 C 1110.691406 674.996094 1110.859375 674.792969 1111.007812 674.574219 C 1111.152344 674.355469 1111.277344 674.121094 1111.378906 673.878906 C 1111.480469 673.632812 1111.554688 673.382812 1111.609375 673.121094 C 1111.660156 672.863281 1111.683594 672.601562 1111.683594 672.335938 L 1111.683594 648.175781 C 1113.613281 647.90625 1115.453125 647.34375 1117.207031 646.492188 C 1118.976562 645.613281 1120.5 644.417969 1121.777344 642.90625 C 1121.984375 642.695312 1122.179688 642.46875 1122.355469 642.230469 C 1122.839844 641.566406 1123.4375 640.460938 1124.183594 638.859375 C 1124.222656 638.777344 1124.253906 638.695312 1124.289062 638.609375 C 1125.046875 636.550781 1125.480469 634.425781 1125.582031 632.234375 C 1125.582031 632.160156 1125.582031 632.085938 1125.582031 632.007812 L 1125.628906 609.574219 C 1125.628906 609.3125 1125.601562 609.050781 1125.550781 608.792969 C 1125.5 608.53125 1125.425781 608.28125 1125.324219 608.035156 C 1125.226562 607.792969 1125.101562 607.5625 1124.957031 607.339844 C 1124.8125 607.121094 1124.644531 606.917969 1124.460938 606.730469 C 1124.273438 606.542969 1124.070312 606.375 1123.851562 606.226562 C 1123.636719 606.078125 1123.402344 605.953125 1123.160156 605.851562 C 1122.917969 605.75 1122.667969 605.671875 1122.410156 605.617188 C 1122.152344 605.566406 1121.890625 605.539062 1121.625 605.535156 Z M 1121.625 605.535156 " fill-opacity="1" fill-rule="nonzero"/></g></svg>